<svg width="32" height="32" viewBox="0 0 32 32" fill="none" xmlns="http://www.w3.org/2000/svg">
<path d="M18.8438 13.4375C17.8711 13.4531 16.8984 13.4648 15.9258 13.4766C15.2422 13.4805 14.7305 13.4961 14.3867 13.5195C14.2422 13.5312 14.0078 13.5625 13.6836 13.6094C13.5664 13.6289 13.4648 13.6523 13.375 13.6836C13.2617 13.7188 13.1602 13.7461 13.0664 13.7656C13.0469 13.7695 13.0234 13.7656 13.0078 13.7734C12.9375 13.8008 12.8477 13.832 12.7344 13.8672C12.5938 13.9102 12.4492 13.9609 12.2891 14.0234C12.1953 14.0625 12.1289 14.0898 12.0938 14.1133C12.0859 14.1172 12.0781 14.1211 12.0664 14.1211C12.043 14.1172 12.0273 14.1211 12.0078 14.1289C11.8984 14.168 11.7891 14.2148 11.6836 14.2656C11.6719 14.2734 11.6641 14.2812 11.6562 14.2891C11.6406 14.3008 11.6289 14.3047 11.6094 14.3047C11.6055 14.3047 11.6016 14.3086 11.5977 14.3086C11.5938 14.3125 11.5898 14.3164 11.5859 14.3203C11.5664 14.3477 11.5352 14.3633 11.5 14.3633C11.4922 14.3633 11.4805 14.3633 11.4688 14.3672C11.4102 14.4023 11.3477 14.4297 11.2773 14.457C11.2539 14.4648 11.2344 14.4766 11.2148 14.4922C11.1953 14.5039 11.1758 14.5156 11.1562 14.5234C11.1211 14.5352 11.0898 14.5508 11.0547 14.5664C11.0273 14.5742 11.0039 14.5898 10.9844 14.6055C10.9531 14.6289 10.9219 14.6445 10.8867 14.6523C10.875 14.6562 10.8672 14.6602 10.8555 14.668C10.8359 14.6836 10.8203 14.7031 10.8047 14.7227C10.793 14.7383 10.7812 14.7461 10.7656 14.7461C10.7578 14.7461 10.75 14.7461 10.7422 14.7539C10.7305 14.7617 10.7188 14.7734 10.7109 14.7891C10.7031 14.7969 10.6992 14.8008 10.6875 14.8008C10.6797 14.8008 10.6719 14.8047 10.668 14.8125C10.6641 14.8203 10.6562 14.8281 10.6484 14.832C10.582 14.8789 10.5117 14.918 10.4375 14.9414C10.3906 14.957 10.3867 14.9805 10.3516 15.0039C10.2852 15.0547 10.2188 15.1055 10.1484 15.1523C10.1055 15.1836 10.0625 15.1992 10.0156 15.2148C9.98047 15.2266 9.94922 15.2422 9.91406 15.2617C9.80469 15.3242 9.69141 15.3711 9.57031 15.4023C9.55469 15.4062 9.53906 15.4141 9.52734 15.4258C9.51562 15.4375 9.5 15.4492 9.48828 15.4609C9.47656 15.4805 9.45703 15.4922 9.42969 15.5C9.38281 15.5156 9.33984 15.5469 9.30078 15.5938C9.29688 15.5977 9.29297 15.5977 9.28906 15.6016C9.28516 15.6016 9.28125 15.6016 9.27344 15.6016C9.26953 15.6016 9.26562 15.6016 9.26172 15.6016C9.25781 15.5977 9.25391 15.5938 9.25 15.5898L9.19922 15.5273" stroke="#BF445E" stroke-width="0.25"/>
<path d="M14.5154 17.5C14.4333 17.5234 14.3552 17.543 14.2849 17.5625C14.2107 17.582 14.1365 17.5977 14.0583 17.6094C13.824 17.6406 13.5857 17.6836 13.3474 17.7266C13.238 17.75 13.1208 17.7656 12.9998 17.7734C12.9373 17.7773 12.8904 17.8047 12.8279 17.8008C12.7615 17.8008 12.6951 17.8047 12.6287 17.8164C12.4255 17.8438 12.2224 17.8711 12.0193 17.8945C11.9255 17.9062 11.8279 17.9258 11.7263 17.9492C11.6248 17.9727 11.531 17.9922 11.4373 18.0078C11.2419 18.0391 11.0662 18.082 10.9138 18.1289C10.7224 18.1875 10.5232 18.2617 10.3083 18.3594C10.1951 18.4062 10.0857 18.4609 9.98413 18.5156C9.87866 18.5703 9.77319 18.6289 9.65991 18.6875C9.35913 18.8477 9.07788 19.0469 8.82788 19.2773C8.58569 19.4961 8.39819 19.7109 8.26538 19.9297C8.24194 19.9648 8.2185 20 8.18725 20.0312C8.1521 20.0664 8.12866 20.1094 8.12085 20.1602C8.12085 20.1641 8.11694 20.168 8.10913 20.1719C8.10131 20.1719 8.09741 20.1758 8.09741 20.1836C8.08178 20.2305 8.05835 20.2734 8.0271 20.3086C7.99585 20.3477 7.98413 20.3828 7.9646 20.4258C7.96069 20.4375 7.95678 20.4453 7.94897 20.4492C7.94116 20.457 7.93725 20.4688 7.94116 20.4805C7.94116 20.4844 7.94506 20.4883 7.94506 20.4883C7.94116 20.4922 7.94116 20.4961 7.94116 20.5C7.89428 20.5938 7.85913 20.6914 7.8435 20.7969C7.8396 20.8281 7.83178 20.8516 7.82006 20.875C7.80835 20.9023 7.80053 20.9258 7.79663 20.9531C7.78881 21.0039 7.78881 21.0547 7.79272 21.1016C7.79663 21.1133 7.79272 21.1211 7.78881 21.1328C7.7771 21.1641 7.77319 21.1953 7.78491 21.2305C7.78881 21.2422 7.78881 21.2539 7.78491 21.2656C7.7771 21.2969 7.7771 21.3281 7.78881 21.3594C7.79272 21.3672 7.79272 21.3789 7.79272 21.3867C7.78881 21.4258 7.79272 21.4648 7.80444 21.5039C7.80444 21.5078 7.80444 21.5078 7.80053 21.5078L7.79663 21.5156C7.79272 21.5234 7.78881 21.5312 7.79272 21.5391C7.80444 21.6328 7.80835 21.7227 7.80053 21.8086C7.80053 21.8203 7.80444 21.832 7.80835 21.8398C7.82006 21.875 7.83178 21.9102 7.83569 21.9453C7.84741 22.0391 7.87085 22.1289 7.906 22.2227C7.91772 22.2617 7.93335 22.3086 7.94897 22.3594C7.9646 22.4062 7.98413 22.4531 8.00366 22.4961C8.01538 22.5195 8.02319 22.543 8.031 22.5703C8.03881 22.6016 8.05053 22.6328 8.06616 22.6562C8.07397 22.6719 8.07788 22.6719 8.07788 22.6523C8.07397 22.6445 8.07397 22.6367 8.07006 22.6289C8.07006 22.625 8.07006 22.625 8.07788 22.625C8.08178 22.625 8.08178 22.625 8.08569 22.6289C8.11694 22.6836 8.14428 22.7422 8.17163 22.8086C8.17553 22.8164 8.18335 22.8203 8.18725 22.8242C8.20678 22.8281 8.21069 22.8398 8.2185 22.8555C8.23022 22.9023 8.25366 22.9453 8.281 22.9883" stroke="#7B3450" stroke-width="0.25"/>
<path d="M8.28125 22.9883C8.32812 23.1016 8.375 23.1914 8.41797 23.25C8.44141 23.2812 8.48047 23.3125 8.53516 23.3438C8.54297 23.3477 8.55078 23.3594 8.55469 23.3672C8.56641 23.3984 8.58594 23.4141 8.61328 23.4297C8.66797 23.4609 8.67578 23.4922 8.64453 23.5195" stroke="#9D3F58" stroke-width="0.25"/>
<path d="M9.00781 23.6446C9.01953 23.6055 9.01172 23.5743 8.99219 23.5508C8.94922 23.5118 8.92578 23.4766 8.91406 23.4375C8.91016 23.4297 8.90625 23.4219 8.89844 23.4141C8.82812 23.3516 8.74219 23.2891 8.64453 23.2305C8.61328 23.211 8.58594 23.1875 8.5625 23.1602C8.52344 23.1133 8.48438 23.0625 8.44531 23.0118C8.44141 23.0079 8.4375 23 8.4375 22.9922C8.4375 22.9727 8.42969 22.961 8.41406 22.9532C8.39844 22.9493 8.38672 22.9375 8.37891 22.9258C8.35156 22.8789 8.32422 22.836 8.29297 22.7969C8.27734 22.7735 8.26562 22.75 8.25781 22.7227C8.25 22.6954 8.23828 22.6719 8.22266 22.6524C8.19922 22.625 8.17969 22.5977 8.16406 22.5625C8.13672 22.5039 8.10938 22.4414 8.08594 22.3789C8.08594 22.375 8.07812 22.3672 8.07422 22.3633C8.07031 22.3633 8.06641 22.3555 8.06641 22.3516C8.03516 22.2735 8.01172 22.1993 7.99219 22.1289C7.97266 22.0586 7.96094 21.9766 7.95703 21.8868C7.95312 21.7735 7.94141 21.6641 7.92578 21.5586V21.5547L7.91797 21.5469C7.91406 21.543 7.91016 21.5352 7.91406 21.5274C7.92578 21.5039 7.92578 21.4805 7.91016 21.4571C7.90234 21.4493 7.90234 21.4414 7.90234 21.4336C7.91016 21.4063 7.90625 21.3829 7.89844 21.3555C7.89453 21.336 7.89062 21.3164 7.89062 21.293C7.89062 21.2422 7.89062 21.1914 7.88281 21.1407C7.87891 21.0938 7.88672 21.0469 7.89844 21C7.91797 20.9414 7.92578 20.8789 7.92578 20.8125C7.92578 20.793 7.92578 20.793 7.92188 20.8086C7.90234 20.8946 7.88672 20.9805 7.875 21.0704C7.875 21.0782 7.875 21.1055 7.875 21.1446C7.875 21.1719 7.87109 21.1993 7.85938 21.2188C7.85938 21.2305 7.85938 21.2383 7.85938 21.2461C7.87109 21.2735 7.875 21.3008 7.875 21.3321C7.88672 21.5586 7.91016 21.8047 7.94922 22.0782C7.95312 22.086 7.95312 22.0938 7.96094 22.1055C7.96875 22.1172 7.96875 22.1329 7.96875 22.1485C7.96875 22.1641 7.96875 22.1797 7.97266 22.1954C7.98828 22.2735 8.00781 22.3438 8.03516 22.4102C8.04297 22.4297 8.03906 22.4297 8.03125 22.4141C7.98438 22.3516 7.99219 22.2852 7.96875 22.2149C7.95703 22.1758 7.94141 22.1329 7.92188 22.0899C7.92188 22.086 7.92188 22.086 7.91797 22.086L7.91016 22.0899C7.91016 22.0938 7.90625 22.0938 7.90625 22.0938H7.91016C7.92969 22.1524 7.94922 22.211 7.96094 22.2696C7.97266 22.3243 7.99219 22.3829 8.01953 22.4414C8.08594 22.5743 8.15234 22.7071 8.22266 22.836C8.24609 22.8829 8.26562 22.9336 8.28125 22.9883" stroke="#7B3450" stroke-width="0.25"/>
<path d="M18.8438 13.4375C17.8711 13.4531 16.8984 13.4648 15.9258 13.4766C15.2422 13.4805 14.7305 13.4961 14.3867 13.5195C14.2422 13.5313 14.0078 13.5625 13.6836 13.6094C13.5664 13.6289 13.4648 13.6523 13.375 13.6836C13.2617 13.7187 13.1602 13.7461 13.0664 13.7656C13.0469 13.7695 13.0234 13.7656 13.0078 13.7734C12.9375 13.8008 12.8477 13.832 12.7344 13.8672C12.5938 13.9102 12.4492 13.9609 12.2891 14.0234C12.1953 14.0625 12.1289 14.0898 12.0938 14.1133C12.0859 14.1172 12.0781 14.1211 12.0664 14.1211C12.043 14.1211 12.0273 14.1211 12.0078 14.1289C11.8984 14.168 11.7891 14.2148 11.6836 14.2656C11.6719 14.2734 11.6641 14.2812 11.6562 14.2891C11.6406 14.3008 11.6289 14.3047 11.6094 14.3047C11.6055 14.3047 11.6016 14.3086 11.5977 14.3086C11.5938 14.3125 11.5898 14.3164 11.5859 14.3203C11.5664 14.3477 11.5352 14.3633 11.5 14.3633C11.4922 14.3633 11.4805 14.3633 11.4688 14.3672C11.4102 14.4023 11.3477 14.4297 11.2773 14.457C11.2539 14.4648 11.2344 14.4766 11.2148 14.4922C11.1953 14.5039 11.1758 14.5156 11.1562 14.5234C11.1211 14.5352 11.0898 14.5508 11.0547 14.5664C11.0273 14.5742 11.0039 14.5898 10.9844 14.6055C10.9531 14.6289 10.9219 14.6445 10.8867 14.6523C10.875 14.6562 10.8672 14.6602 10.8555 14.668C10.8359 14.6836 10.8203 14.7031 10.8047 14.7227C10.793 14.7383 10.7812 14.7461 10.7656 14.7461C10.7578 14.7461 10.75 14.7461 10.7422 14.7539C10.7305 14.7617 10.7188 14.7734 10.7109 14.7891C10.7031 14.7969 10.6992 14.8008 10.6875 14.8008C10.6797 14.8008 10.6719 14.8047 10.668 14.8125C10.6641 14.8203 10.6563 14.8281 10.6484 14.832C10.582 14.8789 10.5117 14.918 10.4375 14.9414C10.3906 14.957 10.3867 14.9805 10.3516 15.0039C10.2852 15.0547 10.2188 15.1055 10.1484 15.1523C10.1055 15.1836 10.0625 15.1992 10.0156 15.2148C9.98047 15.2266 9.94922 15.2422 9.91406 15.2617C9.80469 15.3242 9.69141 15.3711 9.57031 15.4023C9.55469 15.4062 9.53906 15.4141 9.52734 15.4258C9.51562 15.4375 9.5 15.4492 9.48828 15.4609C9.47656 15.4805 9.45703 15.4922 9.42969 15.5C9.38281 15.5156 9.33984 15.5469 9.30078 15.5938C9.29688 15.5977 9.29297 15.5977 9.28906 15.6016C9.28516 15.6016 9.28125 15.6016 9.27344 15.6016C9.26953 15.6016 9.26562 15.6016 9.26172 15.6016C9.25781 15.5977 9.25391 15.5937 9.25 15.5898L9.19922 15.5273C9.52344 14.8086 9.85547 14.0898 10.1914 13.375C10.2773 13.1914 10.3633 13 10.4492 12.8086C10.7344 12.1641 11.0469 11.4922 11.3906 10.7891C11.5156 10.5312 11.6367 10.3125 11.7539 10.1289C12.0469 9.68359 12.4063 9.31641 12.8359 9.03516C13.3828 8.67969 13.9688 8.42969 14.6172 8.3125C14.8242 8.27344 15.0312 8.25391 15.2266 8.25391C18.4375 8.24609 21.5859 8.25 24.6719 8.26562C24.7578 8.26562 24.8516 8.26953 24.9531 8.27344C24.9883 8.27734 25.0039 8.29297 25 8.32812C24.9883 8.61328 24.9648 8.91016 24.9297 9.21875C24.8437 9.92969 24.5742 10.6016 24.1875 11.2148C23.9258 11.6367 23.6094 11.9687 23.2344 12.2773C22.4023 12.9609 21.3359 13.3555 20.2617 13.375C19.8164 13.3828 19.3867 13.3867 18.9648 13.3906C18.9258 13.3906 18.8867 13.4062 18.8438 13.4375Z" fill="#E14863"/>
<path d="M18.8435 13.4375C18.8084 13.5156 18.781 13.5898 18.7615 13.6562C18.7146 13.8164 18.6599 13.9766 18.5974 14.1289C18.2888 14.9023 17.8396 15.5938 17.2459 16.1328C16.699 16.6328 16.0974 16.9805 15.4451 17.1836C15.0115 17.3164 14.699 17.4219 14.5154 17.5C14.4334 17.5234 14.3552 17.543 14.2849 17.5625C14.2107 17.582 14.1365 17.5977 14.0584 17.6094C13.824 17.6406 13.5857 17.6836 13.3474 17.7266C13.238 17.75 13.1209 17.7656 12.9998 17.7734C12.9373 17.7773 12.8904 17.8047 12.8279 17.8008C12.7615 17.8008 12.6951 17.8047 12.6287 17.8164C12.4255 17.8438 12.2224 17.8711 12.0193 17.8945C11.9255 17.9063 11.8279 17.9258 11.7263 17.9492C11.6248 17.9727 11.531 17.9922 11.4373 18.0078C11.242 18.0391 11.0662 18.082 10.9138 18.1289C10.7224 18.1875 10.5232 18.2617 10.3084 18.3594C10.1951 18.4062 10.0857 18.4609 9.98414 18.5156C9.87867 18.5703 9.7732 18.6289 9.65992 18.6875C9.35914 18.8477 9.07789 19.0469 8.82789 19.2773C8.5857 19.4961 8.3982 19.7109 8.26539 19.9297C8.24195 19.9648 8.21851 20 8.18726 20.0312C8.15211 20.0664 8.12867 20.1094 8.12086 20.1602C8.12086 20.1641 8.11695 20.168 8.10914 20.1719C8.10133 20.1719 8.09742 20.1758 8.09742 20.1836C8.08179 20.2305 8.05836 20.2734 8.02711 20.3086C7.99586 20.3477 7.98414 20.3828 7.96461 20.4258C7.9607 20.4375 7.95679 20.4453 7.94898 20.4492C7.94117 20.457 7.93726 20.4687 7.94117 20.4805C7.94117 20.4844 7.94508 20.4844 7.94508 20.4883C7.94117 20.4922 7.94117 20.4961 7.94117 20.5C7.89429 20.5938 7.85914 20.6914 7.84351 20.7969C7.83961 20.8281 7.83179 20.8516 7.82008 20.875C7.80836 20.9023 7.80054 20.9258 7.79664 20.9531C7.78883 21.0039 7.78883 21.0547 7.79273 21.1016C7.79664 21.1133 7.79273 21.1211 7.78883 21.1328C7.77711 21.1641 7.7732 21.1953 7.78492 21.2305C7.78883 21.2422 7.78883 21.2539 7.78492 21.2656C7.77711 21.2969 7.77711 21.3281 7.78883 21.3594C7.79273 21.3672 7.79273 21.3789 7.79273 21.3867C7.78883 21.4258 7.79273 21.4648 7.80445 21.5039C7.80445 21.5078 7.80445 21.5078 7.80054 21.5078L7.79664 21.5156C7.79273 21.5234 7.78883 21.5313 7.79273 21.5391C7.80445 21.6328 7.80836 21.7227 7.80054 21.8086C7.80054 21.8203 7.80445 21.832 7.80836 21.8398C7.82008 21.875 7.83179 21.9102 7.8357 21.9453C7.84742 22.0391 7.87086 22.1289 7.90601 22.2227C7.91773 22.2617 7.93336 22.3086 7.94898 22.3594C7.96461 22.4062 7.98414 22.4531 8.00367 22.4961C8.01539 22.5195 8.0232 22.543 8.03101 22.5703C8.03883 22.6016 8.05054 22.6328 8.06617 22.6562C8.07398 22.6719 8.07789 22.6719 8.07789 22.6523C8.07398 22.6445 8.07398 22.6367 8.07007 22.6289C8.07007 22.625 8.07008 22.625 8.07789 22.625C8.08179 22.625 8.08179 22.625 8.0857 22.6289C8.11695 22.6836 8.14429 22.7422 8.17164 22.8086C8.17554 22.8125 8.18336 22.8203 8.18726 22.8242C8.20679 22.8281 8.2107 22.8398 8.21851 22.8555C8.23023 22.9023 8.25367 22.9453 8.28101 22.9883C8.32789 23.1016 8.37476 23.1914 8.41773 23.25C8.44117 23.2812 8.48023 23.3125 8.53492 23.3438C8.54273 23.3477 8.55054 23.3594 8.55445 23.3672C8.56617 23.3984 8.5857 23.4141 8.61304 23.4297C8.66773 23.4609 8.67554 23.4922 8.64429 23.5195C8.2732 23.3594 7.96461 23.1445 7.71851 22.875C7.1482 22.2539 6.90211 21.5078 6.98414 20.6484C6.99976 20.4687 7.02711 20.3164 7.07008 20.1875C7.13258 19.9922 7.22242 19.7695 7.33961 19.5156C7.95289 18.1836 8.57008 16.8555 9.19898 15.5273L9.24976 15.5898C9.25367 15.5937 9.25758 15.5977 9.26148 15.6016C9.26539 15.6016 9.26929 15.6016 9.2732 15.6016C9.28101 15.6016 9.28492 15.6016 9.28883 15.6016C9.29273 15.5977 9.29664 15.5977 9.30054 15.5938C9.33961 15.5469 9.38258 15.5156 9.42945 15.5C9.45679 15.4922 9.47633 15.4805 9.48804 15.4609C9.49976 15.4492 9.51539 15.4375 9.52711 15.4258C9.53883 15.4141 9.55445 15.4062 9.57008 15.4023C9.69117 15.3711 9.80445 15.3242 9.91383 15.2617C9.94898 15.2422 9.98023 15.2266 10.0154 15.2148C10.0623 15.1992 10.1052 15.1836 10.1482 15.1523C10.2185 15.1055 10.2849 15.0547 10.3513 15.0039C10.3865 14.9805 10.3904 14.957 10.4373 14.9414C10.5115 14.918 10.5818 14.8789 10.6482 14.832C10.656 14.8281 10.6638 14.8203 10.6677 14.8125C10.6716 14.8047 10.6795 14.8008 10.6873 14.8008C10.699 14.8008 10.7029 14.7969 10.7107 14.7891C10.7185 14.7734 10.7302 14.7617 10.742 14.7539C10.7498 14.7461 10.7576 14.7461 10.7654 14.7461C10.781 14.7461 10.7927 14.7383 10.8045 14.7227C10.8201 14.7031 10.8357 14.6836 10.8552 14.668C10.867 14.6602 10.8748 14.6562 10.8865 14.6523C10.9216 14.6445 10.9529 14.6289 10.9841 14.6055C11.0037 14.5898 11.0271 14.5742 11.0545 14.5664C11.0896 14.5508 11.1209 14.5352 11.156 14.5234C11.1755 14.5156 11.1951 14.5039 11.2146 14.4922C11.2341 14.4766 11.2537 14.4648 11.2771 14.457C11.3474 14.4297 11.4099 14.4023 11.4685 14.3672C11.4802 14.3633 11.492 14.3633 11.4998 14.3633C11.5349 14.3633 11.5662 14.3477 11.5857 14.3203C11.5896 14.3164 11.5935 14.3125 11.5974 14.3086C11.6013 14.3086 11.6052 14.3047 11.6091 14.3047C11.6287 14.3047 11.6404 14.3008 11.656 14.2891C11.6638 14.2812 11.6716 14.2734 11.6834 14.2656C11.7888 14.2148 11.8982 14.168 12.0076 14.1289C12.0271 14.1211 12.0427 14.1172 12.0662 14.1211C12.0779 14.1211 12.0857 14.1172 12.0935 14.1133C12.1287 14.0898 12.1951 14.0625 12.2888 14.0234C12.449 13.9609 12.5935 13.9102 12.7341 13.8672C12.8474 13.832 12.9373 13.8008 13.0076 13.7734C13.0232 13.7656 13.0466 13.7695 13.0662 13.7656C13.1599 13.7461 13.2615 13.7187 13.3748 13.6836C13.4646 13.6523 13.5662 13.6289 13.6834 13.6094C14.0076 13.5625 14.242 13.5313 14.3865 13.5195C14.7302 13.4961 15.242 13.4805 15.9255 13.4766C16.8982 13.4648 17.8709 13.4531 18.8435 13.4375Z" fill="#9D3F58"/>
<path d="M14.5154 17.5C14.1677 18.2227 13.8279 18.9297 13.5037 19.6289C13.406 19.8359 13.3201 20.0234 13.2458 20.1992C13.0076 20.7578 12.6951 21.4219 12.3123 22.1836C12.0232 22.7656 11.5857 23.1953 11.0115 23.4805C10.4021 23.7812 9.656 23.8203 9.00756 23.6445C9.01928 23.6055 9.01147 23.5742 8.99194 23.5508C8.94897 23.5117 8.92553 23.4766 8.91381 23.4375C8.90991 23.4297 8.906 23.4219 8.89819 23.4141C8.82788 23.3516 8.74194 23.2891 8.64428 23.2305C8.61303 23.2109 8.58569 23.1875 8.56225 23.1602C8.52319 23.1133 8.48413 23.0625 8.44506 23.0117C8.44116 23.0078 8.43725 23 8.43725 22.9922C8.43725 22.9727 8.42944 22.9609 8.41381 22.9531C8.39819 22.9492 8.38647 22.9375 8.37866 22.9258C8.35131 22.8789 8.32397 22.8359 8.29272 22.7969C8.2771 22.7734 8.26538 22.75 8.25756 22.7227C8.24975 22.6953 8.23803 22.6719 8.22241 22.6523C8.19897 22.625 8.17944 22.5977 8.16381 22.5625C8.13647 22.5039 8.10913 22.4414 8.08569 22.3789C8.08569 22.375 8.07788 22.3672 8.07397 22.3633C8.07006 22.3633 8.06616 22.3555 8.06616 22.3516C8.03491 22.2734 8.01147 22.1992 7.99194 22.1289C7.97241 22.0586 7.96069 21.9766 7.95678 21.8867C7.95288 21.7734 7.94116 21.6641 7.92553 21.5586V21.5547L7.91772 21.5469C7.91381 21.543 7.90991 21.5352 7.91381 21.5273C7.92553 21.5039 7.92553 21.4805 7.90991 21.457C7.9021 21.4492 7.9021 21.4414 7.9021 21.4336C7.90991 21.4062 7.906 21.3828 7.89819 21.3555C7.89428 21.3359 7.89038 21.3164 7.89038 21.293C7.89038 21.2422 7.89038 21.1914 7.88256 21.1406C7.87866 21.0938 7.88647 21.0469 7.89819 21C7.91772 20.9414 7.92553 20.8789 7.92553 20.8125C7.92553 20.793 7.92553 20.793 7.92163 20.8086C7.9021 20.8945 7.88647 20.9805 7.87475 21.0703C7.87475 21.0781 7.87475 21.1055 7.87475 21.1445C7.87475 21.1719 7.87085 21.1992 7.85913 21.2188C7.85913 21.2305 7.85913 21.2383 7.85913 21.2461C7.87085 21.2734 7.87475 21.3008 7.87475 21.332C7.88647 21.5586 7.90991 21.8047 7.94897 22.0781C7.95288 22.0859 7.95288 22.0937 7.96069 22.1055C7.9685 22.1172 7.9685 22.1328 7.9685 22.1484C7.9685 22.1641 7.9685 22.1797 7.97241 22.1953C7.98803 22.2734 8.00756 22.3438 8.03491 22.4102C8.04272 22.4297 8.03881 22.4297 8.031 22.4141C7.98413 22.3516 7.99194 22.2852 7.9685 22.2148C7.95678 22.1758 7.94116 22.1328 7.92163 22.0898C7.92163 22.0859 7.92163 22.0859 7.91772 22.0859L7.90991 22.0898C7.90991 22.0937 7.906 22.0938 7.906 22.0938H7.90991C7.92944 22.1523 7.94897 22.2109 7.96069 22.2695C7.97241 22.3242 7.99194 22.3828 8.01928 22.4414C8.08569 22.5742 8.1521 22.707 8.22241 22.8359C8.24585 22.8828 8.26538 22.9336 8.281 22.9883C8.25366 22.9453 8.23022 22.9023 8.2185 22.8555C8.21069 22.8398 8.20678 22.8281 8.18725 22.8242C8.18335 22.8203 8.17553 22.8164 8.17163 22.8086C8.14428 22.7422 8.11694 22.6836 8.08569 22.6289C8.08178 22.625 8.08178 22.625 8.07788 22.625C8.07006 22.625 8.07006 22.625 8.07006 22.6289C8.07397 22.6367 8.07397 22.6445 8.07788 22.6523C8.07788 22.6719 8.07397 22.6719 8.06616 22.6562C8.05053 22.6328 8.03881 22.6016 8.031 22.5703C8.02319 22.543 8.01538 22.5195 8.00366 22.4961C7.98413 22.4531 7.9646 22.4062 7.94897 22.3594C7.93335 22.3086 7.91772 22.2617 7.906 22.2227C7.87085 22.1289 7.84741 22.0391 7.83569 21.9453C7.83178 21.9102 7.82006 21.875 7.80835 21.8398C7.80444 21.832 7.80053 21.8203 7.80053 21.8086C7.80835 21.7227 7.80444 21.6328 7.79272 21.5391C7.78881 21.5313 7.79272 21.5234 7.79663 21.5156L7.80053 21.5078C7.80444 21.5078 7.80444 21.5078 7.80444 21.5039C7.79272 21.4648 7.78881 21.4258 7.79272 21.3867C7.79272 21.3789 7.79272 21.3672 7.78881 21.3594C7.7771 21.3281 7.7771 21.2969 7.78491 21.2656C7.78881 21.2539 7.78881 21.2422 7.78491 21.2305C7.77319 21.1953 7.7771 21.1641 7.78881 21.1328C7.79272 21.1211 7.79663 21.1133 7.79272 21.1016C7.78881 21.0547 7.78881 21.0039 7.79663 20.9531C7.80053 20.9258 7.80835 20.9023 7.82006 20.875C7.83178 20.8516 7.8396 20.8281 7.8435 20.7969C7.85913 20.6914 7.89428 20.5938 7.94116 20.5C7.94116 20.4961 7.94116 20.4922 7.94506 20.4883C7.94506 20.4883 7.94116 20.4844 7.94116 20.4805C7.93725 20.4687 7.94116 20.457 7.94897 20.4492C7.95678 20.4453 7.96069 20.4375 7.9646 20.4258C7.98413 20.3828 7.99585 20.3477 8.0271 20.3086C8.05835 20.2734 8.08178 20.2305 8.09741 20.1836C8.09741 20.1758 8.10131 20.1719 8.10913 20.1719C8.11694 20.168 8.12085 20.1641 8.12085 20.1602C8.12866 20.1094 8.1521 20.0664 8.18725 20.0312C8.2185 20 8.24194 19.9648 8.26538 19.9297C8.39819 19.7109 8.58569 19.4961 8.82788 19.2773C9.07788 19.0469 9.35913 18.8477 9.65991 18.6875C9.77319 18.6289 9.87866 18.5703 9.98413 18.5156C10.0857 18.4609 10.1951 18.4062 10.3083 18.3594C10.5232 18.2617 10.7224 18.1875 10.9138 18.1289C11.0662 18.082 11.2419 18.0391 11.4373 18.0078C11.531 17.9922 11.6248 17.9727 11.7263 17.9492C11.8279 17.9258 11.9255 17.9063 12.0193 17.8945C12.2224 17.8711 12.4255 17.8438 12.6287 17.8164C12.6951 17.8047 12.7615 17.8008 12.8279 17.8008C12.8904 17.8047 12.9373 17.7773 12.9998 17.7734C13.1208 17.7656 13.238 17.75 13.3474 17.7266C13.5857 17.6836 13.824 17.6406 14.0583 17.6094C14.1365 17.5977 14.2107 17.582 14.2849 17.5625C14.3552 17.543 14.4333 17.5234 14.5154 17.5Z" fill="#592847"/>
<path d="M9.00781 23.6446L8.64453 23.5196C8.67578 23.4922 8.66797 23.461 8.61328 23.4297C8.58594 23.4141 8.56641 23.3985 8.55469 23.3672C8.55078 23.3594 8.54297 23.3477 8.53516 23.3438C8.48047 23.3125 8.44141 23.2813 8.41797 23.25C8.375 23.1914 8.32812 23.1016 8.28125 22.9883C8.26562 22.9336 8.24609 22.8829 8.22266 22.836C8.15234 22.7071 8.08594 22.5743 8.01953 22.4414C7.99219 22.3829 7.97266 22.3243 7.96094 22.2696C7.94922 22.211 7.92969 22.1524 7.91016 22.0938H7.90625C7.90625 22.0938 7.91016 22.0938 7.91016 22.0899L7.91797 22.086C7.92188 22.086 7.92188 22.086 7.92188 22.0899C7.94141 22.1329 7.95703 22.1758 7.96875 22.2149C7.99219 22.2852 7.98438 22.3516 8.03125 22.4141C8.03906 22.4297 8.04297 22.4297 8.03516 22.4102C8.00781 22.3438 7.98828 22.2735 7.97266 22.1954C7.96875 22.1797 7.96875 22.1641 7.96875 22.1485C7.96875 22.1329 7.96875 22.1172 7.96094 22.1055C7.95312 22.0938 7.95313 22.086 7.94922 22.0782C7.91016 21.8047 7.88672 21.5586 7.875 21.3321C7.875 21.3008 7.87109 21.2735 7.85938 21.2461C7.85938 21.2383 7.85938 21.2305 7.85938 21.2188C7.87109 21.1993 7.875 21.1719 7.875 21.1446C7.875 21.1055 7.875 21.0782 7.875 21.0704C7.88672 20.9805 7.90234 20.8946 7.92188 20.8086C7.92578 20.793 7.92578 20.793 7.92578 20.8125C7.92578 20.8789 7.91797 20.9414 7.89844 21C7.88672 21.0469 7.87891 21.0938 7.88281 21.1407C7.89063 21.1914 7.89062 21.2422 7.89062 21.293C7.89062 21.3164 7.89453 21.336 7.89844 21.3555C7.90625 21.3829 7.91016 21.4063 7.90234 21.4336C7.90234 21.4414 7.90234 21.4493 7.91016 21.4571C7.92578 21.4805 7.92578 21.5039 7.91406 21.5274C7.91016 21.5352 7.91406 21.543 7.91797 21.5469L7.92578 21.5547V21.5586C7.94141 21.6641 7.95312 21.7735 7.95703 21.8868C7.96094 21.9766 7.97266 22.0586 7.99219 22.1289C8.01172 22.1993 8.03516 22.2735 8.06641 22.3516C8.06641 22.3555 8.07031 22.3633 8.07422 22.3633C8.07812 22.3672 8.08594 22.375 8.08594 22.3789C8.10938 22.4414 8.13672 22.5039 8.16406 22.5625C8.17969 22.5977 8.19922 22.625 8.22266 22.6524C8.23828 22.6719 8.25 22.6954 8.25781 22.7227C8.26562 22.75 8.27734 22.7735 8.29297 22.7969C8.32422 22.836 8.35156 22.8789 8.37891 22.9258C8.38672 22.9375 8.39844 22.9493 8.41406 22.9532C8.42969 22.961 8.4375 22.9727 8.4375 22.9922C8.4375 23 8.44141 23.0079 8.44531 23.0118C8.48437 23.0625 8.52344 23.1133 8.5625 23.1602C8.58594 23.1875 8.61328 23.211 8.64453 23.2305C8.74219 23.2891 8.82813 23.3516 8.89844 23.4141C8.90625 23.4219 8.91016 23.4297 8.91406 23.4375C8.92578 23.4766 8.94922 23.5118 8.99219 23.5508C9.01172 23.5743 9.01953 23.6055 9.00781 23.6446Z" fill="#9D3F58"/>
</svg>
